<mxfile host="app.diagrams.net" modified="2024-07-15T07:16:31.578Z" agent="Mozilla/5.0 (Macintosh; Intel Mac OS X 10_15_7) AppleWebKit/537.36 (KHTML, like Gecko) Chrome/126.0.0.0 Safari/537.36" version="24.6.5" etag="njNGGlf4XUxoR1DfW8xx" type="github">
  <diagram name="第 1 页" id="1B7yUymrB1NeQLyuM9xT">
    <mxGraphModel>
      <root>
        <mxCell id="0" />
        <mxCell id="1" parent="0" />
      </root>
    </mxGraphModel>
  </diagram>
</mxfile>
